{
.appVersion = "3133";
.formatVersion = 3;
date = "2022-11-10 14:17:55 +0000";
familyName = EorzeaEase;
fontMaster = (
{
id = m01;
metricValues = (
{
over = 16;
pos = 800;
},
{
over = -16;
},
{
over = -16;
pos = -200;
}
);
name = Regular;
}
);
glyphs = (
{
glyphname = A;
lastChange = "2022-10-19 04:40:43 +0000";
layers = (
{
layerId = m01;
shapes = (
{
attr = {
fillColor = (0,255);
};
closed = 1;
nodes = (
(630,650,o),
(580,699,o),
(430,699,c),
(305,699,o),
(180,650,o),
(180,650,c),
(180,800,l),
(80,800,l),
(80,800,o),
(80,800,o),
(80,200,c),
(80,0,o),
(30,0,o),
(30,0,c),
(155,0,l),
(155,0,o),
(185,0,o),
(185,75,c),
(185,75,o),
(230,-1,o),
(380,-1,c),
(630,0,o),
(630,225,o),
(630,225,c),
(630,225,o),
(630,450,o),
(380,450,c),
(280,450,o),
(182,401,o),
(182,401,c),
(180,550,l),
(180,550,o),
(305,600,o),
(430,600,c),
(580,600,o),
(630,550,o),
(630,550,c),
(630,650,l)
);
},
{
attr = {
fillColor = (0,255);
};
closed = 1;
nodes = (
(180,300,o),
(280,353,o),
(380,353,c),
(530,353,o),
(530,225,o),
(530,225,c),
(530,225,o),
(530,101,o),
(380,101,c),
(230,101,o),
(180,200,o),
(180,200,c),
(180,300,l)
);
}
);
width = 660;
}
);
unicode = 65;
},
{
glyphname = B;
lastChange = "2022-10-16 14:50:15 +0000";
layers = (
{
layerId = m01;
shapes = (
{
attr = {
fillColor = (0,255);
};
closed = 1;
nodes = (
(330,250,l),
(330,250,o),
(399,249,o),
(430,250,c),
(530,254,o),
(730,400,o),
(730,550,c),
(730,700,o),
(630,800,o),
(530,800,c),
(230,800,o),
(31,530,o),
(30,350,c),
(30,165,o),
(131,0,o),
(330,0,c),
(531,-1,o),
(630,100,o),
(630,100,c),
(630,200,l),
(630,200,o),
(266,-40,o),
(158,260,c),
(75,490,o),
(328,640,o),
(328,640,c)
);
},
{
attr = {
fillColor = (0,255);
};
closed = 1;
nodes = (
(430,674,o),
(482,697,o),
(529,695,c),
(579,693,o),
(630,650,o),
(630,550,c),
(630,400,o),
(430,345,o),
(430,345,c),
(430,674,l)
);
}
);
width = 760;
}
);
unicode = 66;
},
{
glyphname = C;
lastChange = "2022-09-30 17:55:17 +0000";
layers = (
{
layerId = m01;
shapes = (
{
attr = {
fillColor = (0,255);
};
closed = 1;
nodes = (
(430,800,l),
(430,800,o),
(224,814,o),
(92,652,c),
(51,601,o),
(30,550,o),
(30,400,c),
(30,330,o),
(38,179,o),
(130,100,c),
(267,-18,o),
(430,0,o),
(430,0,c),
(530,0,l),
(630,100,l),
(630,800,l)
);
},
{
attr = {
fillColor = (0,255);
};
closed = 1;
nodes = (
(530,150,l),
(475,100,l),
(475,100,o),
(331,91,o),
(258,137,c),
(154,203,o),
(130,300,o),
(130,400,c),
(130,525,o),
(139,607,o),
(243,662,c),
(344,715,o),
(530,700,o),
(530,700,c)
);
}
);
width = 660;
}
);
unicode = 67;
},
{
glyphname = D;
lastChange = "2022-09-19 07:33:02 +0000";
layers = (
{
layerId = m01;
shapes = (
{
attr = {
fillColor = (0,255);
};
closed = 1;
nodes = (
(380,800,o),
(30,700,o),
(30,250,c),
(30,150,o),
(80,0,o),
(280,0,c),
(505,0,o),
(531,401,o),
(531,600,c),
(532,690,o),
(532,697,o),
(532,697,c),
(532,697,o),
(534,700,o),
(580,700,c),
(730,700,o),
(730,500,o),
(730,500,c),
(830,500,l),
(830,500,o),
(830,800,o),
(580,800,c)
);
},
{
attr = {
fillColor = (0,255);
};
closed = 1;
nodes = (
(428,686,o),
(447,161,o),
(310,114,c),
(206,78,o),
(108,204,o),
(138,348,c),
(205,662,o),
(428,686,o),
(428,686,c)
);
}
);
width = 860;
}
);
unicode = 68;
},
{
glyphname = E;
lastChange = "2022-09-19 08:13:21 +0000";
layers = (
{
layerId = m01;
shapes = (
{
attr = {
fillColor = (0,255);
};
closed = 1;
nodes = (
(130,0,l),
(630,0,l),
(630,750,l),
(630,750,o),
(280,750,o),
(180,750,c),
(130,750,o),
(130,800,o),
(130,800,c),
(30,800,l),
(30,800,o),
(30,675,o),
(130,675,c),
(230,675,o),
(530,675,o),
(530,675,c),
(530,425,l),
(180,425,l),
(180,350,l),
(530,350,l),
(530,85,l),
(130,85,l)
);
}
);
width = 660;
}
);
unicode = 69;
},
{
glyphname = F;
lastChange = "2022-09-19 08:15:32 +0000";
layers = (
{
layerId = m01;
shapes = (
{
attr = {
fillColor = (0,255);
};
closed = 1;
nodes = (
(130,0,l),
(130,0,o),
(130,415,o),
(130,615,c),
(130,666,o),
(165,700,o),
(215,700,c),
(315,700,o),
(380,700,o),
(480,700,c),
(527,700,o),
(530,600,o),
(530,600,c),
(630,600,l),
(630,600,o),
(615,800,o),
(515,800,c),
(415,800,o),
(254,800,o),
(155,800,c),
(105,800,o),
(30,725,o),
(30,675,c),
(31,479,o),
(30,0,o),
(30,0,c)
);
}
);
width = 660;
}
);
unicode = 70;
},
{
glyphname = G;
lastChange = "2022-09-30 17:50:44 +0000";
layers = (
{
layerId = m01;
shapes = (
{
closed = 1;
nodes = (
(630,600,o),
(630,800,o),
(330,800,cs),
(130,800,o),
(30,650,o),
(30,400,cs),
(30,150,o),
(130,0,o),
(330,0,cs),
(630,0,o),
(631,195,o),
(631,195,c),
(630,350,l),
(730,350,l),
(730,450,l),
(630,450,l),
(630,600,l)
);
},
{
closed = 1;
nodes = (
(130,600,o),
(180,700,o),
(330,700,cs),
(530,700,o),
(530,600,o),
(530,600,c),
(530,450,l),
(330,450,l),
(330,350,l),
(530,350,l),
(530,200,l),
(530,200,o),
(530,100,o),
(330,100,cs),
(230,100,o),
(130,200,o),
(130,400,cs)
);
}
);
width = 760;
}
);
unicode = 71;
},
{
glyphname = H;
lastChange = "2022-09-30 17:54:40 +0000";
layers = (
{
layerId = m01;
shapes = (
{
attr = {
fillColor = (0,255);
};
closed = 1;
nodes = (
(30,800,l),
(30,0,l),
(130,0,l),
(130,400,l),
(130,400,o),
(230,500,o),
(330,500,c),
(427,501,o),
(481,402,o),
(480,300,c),
(479,105,o),
(330,0,o),
(330,0,c),
(455,0,l),
(455,0,o),
(580,100,o),
(580,300,c),
(580,500,o),
(430,550,o),
(430,550,c),
(430,550,o),
(530,600,o),
(530,700,c),
(530,750,o),
(530,800,o),
(530,800,c),
(430,800,l),
(430,800,o),
(431,743,o),
(430,700,c),
(430,647,o),
(390,610,o),
(330,600,c),
(230,585,o),
(130,500,o),
(130,500,c),
(130,800,l)
);
}
);
width = 610;
}
);
unicode = 72;
},
{
glyphname = I;
lastChange = "2022-10-02 11:40:27 +0000";
layers = (
{
layerId = m01;
shapes = (
{
attr = {
fillColor = (0,255);
};
closed = 1;
nodes = (
(130,800,l),
(130,0,l),
(30,0,l),
(30,800,l)
);
}
);
width = 160;
}
);
unicode = 73;
},
{
glyphname = J;
lastChange = "2022-10-02 11:43:54 +0000";
layers = (
{
layerId = m01;
shapes = (
{
attr = {
fillColor = (0,255);
};
closed = 1;
nodes = (
(30,800,o),
(30,400,o),
(30,200,c),
(30,100,o),
(130,0,o),
(280,0,c),
(430,0,o),
(530,100,o),
(530,200,c),
(530,200,o),
(430,200,o),
(430,200,c),
(430,200,o),
(430,100,o),
(280,100,c),
(130,100,o),
(130,225,o),
(130,225,c),
(130,350,l),
(530,350,l),
(530,450,l),
(130,450,l),
(130,800,l),
(30,800,l)
);
}
);
width = 560;
}
);
unicode = 74;
},
{
glyphname = K;
lastChange = "2022-10-02 14:21:19 +0000";
layers = (
{
layerId = m01;
shapes = (
{
attr = {
fillColor = (0,255);
};
closed = 1;
nodes = (
(30,400,l),
(130,400,l),
(130,575,l),
(130,575,o),
(230,700,o),
(380,700,c),
(380,700,o),
(530,700,o),
(530,600,c),
(530,500,o),
(330,500,o),
(330,500,c),
(230,500,l),
(230,500,o),
(230,300,o),
(230,150,c),
(230,50,o),
(130,0,o),
(130,0,c),
(255,0,l),
(255,0,o),
(330,50,o),
(330,150,c),
(330,300,o),
(330,400,o),
(330,400,c),
(330,400,o),
(630,400,o),
(630,600,c),
(630,800,o),
(378,800,o),
(377,800,c),
(227,800,o),
(130,700,o),
(130,700,c),
(130,800,l),
(30,800,l)
);
}
);
width = 660;
}
);
unicode = 75;
},
{
glyphname = L;
lastChange = "2022-10-02 14:22:38 +0000";
layers = (
{
layerId = m01;
shapes = (
{
attr = {
fillColor = (0,255);
};
closed = 1;
nodes = (
(280,800,l),
(280,100,l),
(30,100,l),
(30,0,l),
(30,0,o),
(329,1,o),
(480,0,c),
(577,0,o),
(630,85,o),
(630,85,c),
(630,200,l),
(630,200,o),
(578,100,o),
(480,100,c),
(451,100,o),
(380,100,o),
(380,100,c),
(380,800,l)
);
}
);
width = 660;
}
);
unicode = 76;
},
{
glyphname = M;
lastChange = "2022-10-04 05:35:52 +0000";
layers = (
{
layerId = m01;
shapes = (
{
attr = {
fillColor = (0,255);
};
closed = 1;
nodes = (
(30,126,l),
(30,125,o),
(55,0,o),
(155,0,c),
(255,0,o),
(330,0,o),
(330,0,c),
(330,100,l),
(230,100,l),
(230,100,o),
(130,100,o),
(130,200,c),
(130,300,o),
(130,700,o),
(130,700,c),
(409,56,l),
(409,56,o),
(430,0,o),
(480,0,c),
(530,0,o),
(555,0,o),
(555,0,c),
(555,0,o),
(555,100,o),
(555,100,c),
(480,100,o),
(474,139,o),
(447,202,c),
(362,403,o),
(251,666,o),
(251,666,c),
(251,666,o),
(297,758,o),
(348,651,c),
(395,538,o),
(608,46,o),
(608,46,c),
(608,46,o),
(630,0,o),
(680,0,c),
(729,0,o),
(755,0,o),
(755,0,c),
(755,0,o),
(755,100,o),
(755,100,c),
(683,100,o),
(650,199,o),
(650,199,c),
(428,705,l),
(428,705,o),
(390,800,o),
(305,800,c),
(230,800,o),
(215,745,o),
(215,745,c),
(215,745,o),
(205,800,o),
(130,800,c),
(30,800,o),
(30,700,o),
(30,700,c)
);
}
);
width = 785;
}
);
unicode = 77;
},
{
glyphname = N;
lastChange = "2022-10-13 08:36:17 +0000";
layers = (
{
layerId = m01;
shapes = (
{
attr = {
fillColor = (0,255);
};
closed = 1;
nodes = (
(30,0,l),
(130,0,l),
(130,250,l),
(130,250,o),
(371,33,o),
(540,186,c),
(708,340,o),
(430,700,o),
(430,700,c),
(630,700,l),
(630,800,l),
(305,800,l),
(305,700,l),
(305,700,o),
(553,367,o),
(463,267,c),
(353,145,o),
(135,346,o),
(134,448,c),
(134,499,o),
(130,800,o),
(130,800,c),
(30,800,l)
);
}
);
width = 660;
}
);
unicode = 78;
},
{
glyphname = O;
lastChange = "2022-10-13 08:39:12 +0000";
layers = (
{
layerId = m01;
shapes = (
{
attr = {
fillColor = (0,255);
};
closed = 1;
nodes = (
(630,299,o),
(617,232,o),
(593,175,c),
(568,118,o),
(533,75,o),
(488,45,c),
(443,15,o),
(390,0,o),
(329,0,c),
(270,0,o),
(218,15,o),
(173,45,c),
(127,75,o),
(93,118,o),
(67,174,c),
(42,230,o),
(30,295,o),
(30,368,c),
(30,424,l),
(30,499,o),
(41,566,o),
(66,623,c),
(91,680,o),
(126,724,o),
(171,755,c),
(217,785,o),
(269,801,o),
(328,801,c),
(388,801,o),
(441,786,o),
(487,756,c),
(533,725,o),
(568,682,o),
(593,624,c),
(617,567,o),
(630,500,o),
(630,424,c),
(630,375,l)
);
},
{
attr = {
fillColor = (0,255);
};
closed = 1;
nodes = (
(532,518,o),
(514,589,o),
(478,638,c),
(442,688,o),
(393,712,o),
(328,712,c),
(266,712,o),
(217,688,o),
(181,638,c),
(145,589,o),
(128,520,o),
(127,432,c),
(127,375,l),
(127,286,o),
(144,215,o),
(180,164,c),
(216,113,o),
(266,87,o),
(329,87,c),
(393,87,o),
(443,111,o),
(478,160,c),
(513,208,o),
(531,277,o),
(532,368,c),
(532,425,l)
);
}
);
width = 660;
}
);
unicode = 79;
},
{
glyphname = P;
lastChange = "2022-10-13 08:45:28 +0000";
layers = (
{
layerId = m01;
shapes = (
{
attr = {
fillColor = (0,255);
};
closed = 1;
nodes = (
(730,600,o),
(731,799,o),
(390,800,c),
(90,800,o),
(30,600,o),
(30,400,c),
(30,100,o),
(180,0,o),
(380,0,c),
(430,0,o),
(430,100,o),
(430,100,c),
(430,350,l),
(430,350,o),
(430,400,o),
(480,400,c),
(584,400,o),
(633,348,o),
(631,250,c),
(628,101,o),
(530,100,o),
(530,100,c),
(530,0,l),
(530,0,o),
(730,0,o),
(730,250,c),
(730,400,o),
(684,500,o),
(430,500,c),
(430,500,o),
(330,500,o),
(330,400,c),
(330,325,o),
(330,100,o),
(330,100,c),
(330,100,o),
(130,100,o),
(130,400,c),
(130,600,o),
(237,699,o),
(390,700,c),
(634,700,o),
(630,600,o),
(630,600,c),
(730,600,l)
);
}
);
width = 760;
}
);
unicode = 80;
},
{
glyphname = Q;
lastChange = "2022-10-13 08:54:05 +0000";
layers = (
{
layerId = m01;
shapes = (
{
attr = {
fillColor = (0,255);
};
closed = 1;
nodes = (
(730,650,o),
(630,800,o),
(430,800,c),
(230,800,o),
(130,650,o),
(130,550,c),
(130,350,o),
(280,340,o),
(280,340,c),
(280,140,o),
(30,100,o),
(30,100,c),
(30,0,l),
(30,0,o),
(377,1,o),
(380,400,c),
(380,400,o),
(230,400,o),
(230,550,c),
(230,635,o),
(330,700,o),
(430,700,c),
(530,700,o),
(630,635,o),
(630,550,c),
(630,400,o),
(480,400,o),
(480,400,c),
(480,0,l),
(580,0,l),
(580,340,l),
(580,340,o),
(730,350,o),
(730,550,c)
);
}
);
width = 760;
}
);
unicode = 81;
},
{
glyphname = R;
lastChange = "2022-10-13 08:56:27 +0000";
layers = (
{
layerId = m01;
shapes = (
{
attr = {
fillColor = (0,255);
};
closed = 1;
nodes = (
(30,0,l),
(130,0,l),
(130,700,l),
(330,700,l),
(330,700,o),
(480,700,o),
(480,550,c),
(479,400,o),
(330,400,o),
(330,400,c),
(330,0,l),
(580,0,l),
(580,100,l),
(430,100,l),
(430,325,l),
(430,325,o),
(581,355,o),
(580,550,c),
(580,800,o),
(330,800,o),
(330,800,c),
(30,800,l)
);
}
);
width = 610;
}
);
unicode = 82;
},
{
glyphname = S;
lastChange = "2022-10-15 06:45:32 +0000";
layers = (
{
layerId = m01;
shapes = (
{
attr = {
fillColor = (0,255);
};
closed = 1;
nodes = (
(630,600,l),
(630,600,o),
(634,798,o),
(330,800,c),
(33,802,o),
(30,600,o),
(30,600,c),
(30,0,l),
(130,0,l),
(130,225,l),
(130,225,o),
(130,350,o),
(330,350,c),
(530,350,o),
(530,225,o),
(530,225,c),
(530,100,o),
(330,100,o),
(330,100,c),
(330,0,l),
(330,0,o),
(630,-1,o),
(630,225,c),
(630,225,o),
(630,450,o),
(330,450,c),
(180,450,o),
(130,385,o),
(130,385,c),
(130,600,l),
(130,600,o),
(130,700,o),
(330,700,c),
(531,700,o),
(530,600,o),
(530,600,c)
);
}
);
width = 660;
}
);
unicode = 83;
},
{
glyphname = T;
lastChange = "2022-10-15 06:46:23 +0000";
layers = (
{
layerId = m01;
shapes = (
{
attr = {
fillColor = (0,255);
};
closed = 1;
nodes = (
(630,0,o),
(629,479,o),
(630,675,c),
(630,725,o),
(555,800,o),
(505,800,c),
(406,800,o),
(245,800,o),
(145,800,c),
(45,800,o),
(30,600,o),
(30,600,c),
(130,600,l),
(130,600,o),
(133,700,o),
(180,700,c),
(280,700,o),
(345,700,o),
(445,700,c),
(495,700,o),
(530,666,o),
(530,615,c),
(530,415,o),
(530,0,o),
(530,0,c),
(630,0,l)
);
}
);
width = 660;
}
);
unicode = 84;
},
{
glyphname = U;
lastChange = "2022-10-15 06:49:26 +0000";
layers = (
{
layerId = m01;
shapes = (
{
attr = {
fillColor = (0,255);
};
closed = 1;
nodes = (
(30,800,o),
(30,500,o),
(30,300,c),
(30,0,o),
(330,0,o),
(330,0,c),
(430,0,l),
(430,0,o),
(730,0,o),
(730,300,c),
(730,400,o),
(730,500,o),
(730,600,c),
(730,800,o),
(530,800,o),
(530,800,c),
(530,800,o),
(330,800,o),
(330,600,c),
(330,400,o),
(330,100,o),
(330,100,c),
(330,100,o),
(130,100,o),
(130,300,c),
(130,500,o),
(132,801,o),
(132,801,c),
(30,800,l)
);
},
{
attr = {
fillColor = (0,255);
};
closed = 1;
nodes = (
(430,100,o),
(430,500,o),
(430,600,c),
(430,701,o),
(530,700,o),
(530,700,c),
(530,700,o),
(630,700,o),
(630,600,c),
(630,500,o),
(630,400,o),
(630,300,c),
(630,100,o),
(430,100,o),
(430,100,c)
);
}
);
width = 760;
}
);
unicode = 85;
},
{
glyphname = V;
lastChange = "2022-10-15 13:55:18 +0000";
layers = (
{
layerId = m01;
shapes = (
{
attr = {
fillColor = (0,255);
};
closed = 1;
nodes = (
(30,0,l),
(130,0,l),
(130,0,o),
(730,300,o),
(730,600,c),
(730,600,o),
(730,800,o),
(530,800,c),
(330,800,o),
(330,600,o),
(330,600,c),
(430,600,l),
(430,600,o),
(430,700,o),
(530,700,c),
(630,700,o),
(630,600,o),
(630,600,c),
(630,375,o),
(130,100,o),
(130,100,c),
(130,800,l),
(30,800,l)
);
}
);
width = 760;
}
);
unicode = 86;
},
{
glyphname = W;
lastChange = "2022-10-15 15:23:04 +0000";
layers = (
{
layerId = m01;
shapes = (
{
attr = {
fillColor = (0,255);
};
closed = 1;
nodes = (
(30,0,l),
(130,0,l),
(130,0,o),
(630,300,o),
(630,600,c),
(630,600,o),
(630,700,o),
(730,700,c),
(730,700,o),
(830,700,o),
(830,600,c),
(830,400,o),
(330,0,o),
(330,0,c),
(430,0,l),
(430,0,o),
(930,350,o),
(930,600,c),
(930,800,o),
(730,800,o),
(730,800,c),
(630,800,o),
(580,745,o),
(580,745,c),
(580,745,o),
(551,800,o),
(430,800,c),
(230,800,o),
(230,600,o),
(230,600,c),
(330,600,l),
(330,600,o),
(330,700,o),
(430,700,c),
(530,700,o),
(530,600,o),
(530,600,c),
(530,385,o),
(130,100,o),
(130,100,c),
(130,800,l),
(30,800,l)
);
}
);
width = 960;
}
);
unicode = 87;
},
{
glyphname = X;
lastChange = "2022-10-16 14:33:35 +0000";
layers = (
{
layerId = m01;
shapes = (
{
attr = {
fillColor = (0,255);
};
closed = 1;
nodes = (
(515,800,l),
(630,800,l),
(388,404,l),
(630,0,l),
(515,0,l),
(329,312,l),
(145,0,l),
(30,0,l),
(270,404,l),
(35,800,l),
(145,800,l),
(329,494,l)
);
}
);
width = 660;
}
);
unicode = 88;
},
{
glyphname = Y;
lastChange = "2022-10-16 14:41:40 +0000";
layers = (
{
layerId = m01;
shapes = (
{
attr = {
fillColor = (0,255);
};
closed = 1;
nodes = (
(730,425,o),
(302,216,o),
(230,145,c),
(184,101,o),
(145,0,o),
(145,0,c),
(30,0,l),
(30,0,o),
(96,200,o),
(105,300,c),
(123,500,o),
(130,800,o),
(130,800,c),
(230,800,l),
(210,265,l),
(210,265,o),
(630,500,o),
(630,650,c),
(630,650,o),
(630,700,o),
(580,700,c),
(530,700,o),
(530,650,o),
(530,650,c),
(430,650,l),
(430,650,o),
(430,800,o),
(580,800,c),
(730,800,o),
(730,650,o),
(730,650,c)
);
}
);
width = 760;
}
);
unicode = 89;
},
{
glyphname = Z;
lastChange = "2022-10-16 14:46:02 +0000";
layers = (
{
layerId = m01;
shapes = (
{
attr = {
fillColor = (0,255);
};
closed = 1;
nodes = (
(330,700,l),
(805,700,l),
(630,525,l),
(630,525,o),
(630,585,o),
(530,585,c),
(480,585,o),
(353,514,o),
(231,400,c),
(137,312,o),
(30,200,o),
(30,100,c),
(30,0,o),
(130,0,o),
(130,0,c),
(185,-2,o),
(264,68,o),
(331,126,c),
(430,214,o),
(530,300,o),
(530,300,c),
(530,300,o),
(530,200,o),
(530,100,c),
(530,0,o),
(630,0,o),
(630,0,c),
(830,0,l),
(830,100,l),
(680,100,l),
(680,100,o),
(630,100,o),
(630,150,c),
(632,299,o),
(630,400,o),
(630,400,c),
(930,700,l),
(930,800,l),
(330,800,l)
);
},
{
attr = {
fillColor = (0,255);
};
closed = 1;
nodes = (
(527,430,o),
(410,328,o),
(326,252,c),
(276,206,o),
(223,158,o),
(183,158,c),
(155,158,o),
(207,240,o),
(286,324,c),
(350,394,o),
(450,485,o),
(500,485,c),
(525,485,o),
(527,430,o),
(527,430,c)
);
}
);
width = 960;
}
);
unicode = 90;
},
{
glyphname = a;
lastChange = "2022-10-31 06:05:51 +0000";
layers = (
{
layerId = m01;
shapes = (
{
attr = {
fillColor = (0,255);
};
closed = 1;
nodes = (
(575,525,o),
(575,600,o),
(400,600,c),
(300,600,o),
(185,500,o),
(185,500,c),
(185,600,l),
(100,600,l),
(100,600,o),
(100,450,o),
(100,300,c),
(100,198,o),
(109,1,o),
(71,-100,c),
(60,-132,o),
(30,-200,o),
(30,-200,c),
(130,-200,l),
(130,-200,o),
(150,-175,o),
(168,-102,c),
(192,-2,o),
(185,100,o),
(185,100,c),
(185,100,o),
(192,53,o),
(350,57,c),
(542,62,o),
(550,235,o),
(550,235,c),
(550,235,o),
(550,400,o),
(350,400,c),
(225,400,o),
(185,335,o),
(185,335,c),
(185,425,l),
(185,425,o),
(271,517,o),
(400,517,c),
(575,517,o),
(575,450,o),
(575,450,c),
(575,525,l)
);
},
{
attr = {
fillColor = (0,255);
};
closed = 1;
nodes = (
(185,250,l),
(185,250,o),
(251,315,o),
(351,315,c),
(475,315,o),
(475,235,o),
(475,235,c),
(475,235,o),
(475,135,o),
(350,135,c),
(250,135,o),
(185,185,o),
(185,185,c)
);
}
);
width = 605;
}
);
unicode = 97;
},
{
glyphname = b;
lastChange = "2022-10-19 06:30:00 +0000";
layers = (
{
layerId = m01;
shapes = (
{
attr = {
fillColor = (0,255);
};
closed = 1;
nodes = (
(305,700,l),
(230,700,l),
(230,500,l),
(230,500,o),
(30,450,o),
(30,235,c),
(30,0,o),
(280,0,o),
(280,0,c),
(455,0,o),
(455,25,o),
(455,25,c),
(455,100,l),
(455,100,o),
(455,75,o),
(280,75,c),
(280,75,o),
(105,75,o),
(105,250,c),
(105,365,o),
(230,415,o),
(230,415,c),
(230,200,l),
(380,200,l),
(380,200,o),
(530,200,o),
(530,375,c),
(530,560,o),
(305,515,o),
(305,515,c)
);
},
{
attr = {
fillColor = (0,255);
};
closed = 1;
nodes = (
(305,434,o),
(455,475,o),
(455,375,c),
(455,275,o),
(380,275,o),
(380,275,c),
(305,275,l),
(305,434,l)
);
}
);
width = 560;
}
);
unicode = 98;
},
{
glyphname = c;
lastChange = "2022-10-22 12:57:38 +0000";
layers = (
{
layerId = m01;
shapes = (
{
attr = {
fillColor = (0,255);
};
closed = 1;
nodes = (
(530,350,l),
(530,350,o),
(530,600,o),
(330,600,c),
(30,600,o),
(30,250,o),
(30,250,c),
(30,250,o),
(30,-100,o),
(330,-100,c),
(330,-100,o),
(330,-25,o),
(330,-25,c),
(105,-25,o),
(105,250,o),
(105,250,c),
(105,250,o),
(105,525,o),
(330,525,c),
(447,526,o),
(455,350,o),
(455,350,c),
(455,150,l),
(530,150,l)
);
}
);
width = 560;
}
);
unicode = 99;
},
{
glyphname = d;
lastChange = "2022-10-22 14:12:51 +0000";
layers = (
{
layerId = m01;
shapes = (
{
attr = {
fillColor = (0,255);
};
closed = 1;
nodes = (
(330,800,l),
(330,500,l),
(330,500,o),
(30,500,o),
(30,250,c),
(30,0,o),
(330,0,o),
(330,0,c),
(405,0,l),
(405,425,l),
(630,425,l),
(630,500,l),
(405,500,l),
(405,800,l)
);
},
{
attr = {
fillColor = (0,255);
};
closed = 1;
nodes = (
(330,75,l),
(330,75,o),
(105,75,o),
(105,250,c),
(105,425,o),
(330,425,o),
(330,425,c)
);
}
);
width = 660;
}
);
unicode = 100;
},
{
glyphname = e;
lastChange = "2022-10-23 12:57:40 +0000";
layers = (
{
layerId = m01;
shapes = (
{
attr = {
fillColor = (0,255);
};
closed = 1;
nodes = (
(30,100,o),
(130,0,o),
(255,0,c),
(530,0,o),
(530,300,o),
(530,300,c),
(530,300,o),
(530,600,o),
(255,600,c),
(130,600,o),
(30,500,o),
(30,500,c),
(105,475,l),
(105,475,o),
(130,525,o),
(255,525,c),
(455,525,o),
(455,350,o),
(455,350,c),
(130,350,l),
(130,275,l),
(455,275,l),
(455,275,o),
(455,75,o),
(255,75,c),
(155,75,o),
(105,125,o),
(105,125,c),
(30,100,l)
);
}
);
width = 560;
}
);
unicode = 101;
},
{
glyphname = f;
lastChange = "2022-10-23 13:18:50 +0000";
layers = (
{
layerId = m01;
shapes = (
{
attr = {
fillColor = (0,255);
};
closed = 1;
nodes = (
(30,0,o),
(30,429,o),
(30,600,c),
(30,650,o),
(80,700,o),
(130,700,c),
(230,700,o),
(355,700,o),
(430,700,c),
(505,700,o),
(530,525,o),
(530,525,c),
(455,525,l),
(455,525,o),
(455,625,o),
(405,625,c),
(320,625,o),
(265,625,o),
(180,625,c),
(130,625,o),
(105,600,o),
(105,550,c),
(105,375,o),
(105,0,o),
(105,0,c),
(30,0,l)
);
}
);
width = 560;
}
);
unicode = 102;
},
{
glyphname = g;
lastChange = "2022-10-26 14:36:25 +0000";
layers = (
{
layerId = m01;
shapes = (
{
attr = {
fillColor = (0,255);
};
closed = 1;
nodes = (
(430,-200,l),
(430,-125,l),
(330,-125,l),
(330,-125,o),
(105,-125,o),
(105,200,c),
(105,525,o),
(454,525,o),
(454,525,c),
(455,375,l),
(330,375,l),
(330,300,l),
(455,300,l),
(455,100,l),
(530,100,l),
(530,300,l),
(630,300,l),
(630,375,l),
(530,378,l),
(530,600,l),
(455,600,l),
(455,600,o),
(30,600,o),
(30,200,c),
(30,-200,o),
(330,-200,o),
(330,-200,c)
);
}
);
width = 660;
}
);
unicode = 103;
},
{
glyphname = h;
lastChange = "2022-10-29 11:55:49 +0000";
layers = (
{
layerId = m01;
shapes = (
{
attr = {
fillColor = (0,255);
};
closed = 1;
nodes = (
(30,0,l),
(105,0,l),
(105,245,l),
(105,245,o),
(130,285,o),
(230,285,c),
(359,285,o),
(355,200,o),
(355,200,c),
(355,0,l),
(430,0,l),
(430,0,o),
(430,50,o),
(430,200,c),
(430,350,o),
(330,350,o),
(330,350,c),
(330,350,o),
(380,350,o),
(380,450,c),
(380,475,o),
(380,500,o),
(380,500,c),
(305,502,l),
(305,450,l),
(305,450,o),
(305,350,o),
(230,350,c),
(180,350,o),
(105,325,o),
(105,325,c),
(105,800,l),
(30,800,l)
);
}
);
width = 460;
}
);
unicode = 104;
},
{
glyphname = i;
lastChange = "2022-10-28 06:35:06 +0000";
layers = (
{
layerId = m01;
shapes = (
{
attr = {
fillColor = (0,255);
};
closed = 1;
nodes = (
(30,0,l),
(105,0,l),
(105,600,l),
(30,600,l)
);
}
);
width = 135;
}
);
unicode = 105;
},
{
glyphname = j;
lastChange = "2022-10-28 06:37:29 +0000";
layers = (
{
layerId = m01;
shapes = (
{
attr = {
fillColor = (0,255);
};
closed = 1;
nodes = (
(30,700,o),
(30,350,o),
(30,175,c),
(30,75,o),
(105,0,o),
(230,0,c),
(355,0,o),
(430,75,o),
(430,175,c),
(430,175,o),
(355,175,o),
(355,175,c),
(355,175,o),
(355,75,o),
(230,75,c),
(105,75,o),
(105,200,o),
(105,200,c),
(105,325,l),
(430,325,l),
(430,400,l),
(105,400,l),
(105,700,l),
(30,700,l)
);
}
);
width = 460;
}
);
unicode = 106;
},
{
glyphname = k;
lastChange = "2022-10-28 17:34:49 +0000";
layers = (
{
layerId = m01;
shapes = (
{
attr = {
fillColor = (0,255);
};
closed = 1;
nodes = (
(30,250,l),
(105,250,l),
(105,400,l),
(105,400,o),
(165,515,o),
(280,515,c),
(280,515,o),
(405,515,o),
(405,425,c),
(405,350,o),
(255,350,o),
(255,350,c),
(180,350,l),
(180,350,o),
(180,151,o),
(180,25,c),
(180,-50,o),
(130,-100,o),
(130,-100,c),
(205,-100,l),
(205,-100,o),
(255,-50,o),
(255,25,c),
(255,152,o),
(255,250,o),
(255,250,c),
(255,250,o),
(480,250,o),
(480,425,c),
(480,600,o),
(280,600,o),
(280,600,c),
(165,600,o),
(105,515,o),
(105,515,c),
(105,600,l),
(30,600,l)
);
}
);
width = 510;
}
);
unicode = 107;
},
{
glyphname = l;
lastChange = "2022-10-28 17:36:18 +0000";
layers = (
{
layerId = m01;
shapes = (
{
attr = {
fillColor = (0,255);
};
closed = 1;
nodes = (
(105,75,l),
(105,800,l),
(30,800,l),
(30,0,l),
(330,0,l),
(330,75,l)
);
}
);
width = 360;
}
);
unicode = 108;
},
{
glyphname = m;
lastChange = "2022-10-28 17:41:14 +0000";
layers = (
{
layerId = m01;
shapes = (
{
attr = {
fillColor = (0,255);
};
closed = 1;
nodes = (
(30,75,l),
(30,75,o),
(30,0,o),
(105,0,c),
(189,0,o),
(280,0,o),
(280,0,c),
(280,75,l),
(195,75,l),
(195,75,o),
(105,75,o),
(105,150,c),
(104,225,o),
(105,525,o),
(105,525,c),
(341,42,l),
(341,42,o),
(360,0,o),
(395,0,c),
(439,-1,o),
(455,0,o),
(455,0,c),
(455,0,o),
(455,75,o),
(455,75,c),
(405,75,o),
(395,104,o),
(373,152,c),
(303,302,o),
(210,500,o),
(210,500,c),
(210,500,o),
(264,549,o),
(291,489,c),
(330,404,o),
(505,34,o),
(505,34,c),
(505,34,o),
(520,0,o),
(565,0,c),
(605,0,o),
(630,0,o),
(630,0,c),
(630,0,o),
(630,75,o),
(630,75,c),
(580,75,o),
(539,149,o),
(539,149,c),
(357,530,l),
(357,530,o),
(330,600,o),
(255,600,c),
(200,600,o),
(182,560,o),
(182,560,c),
(182,560,o),
(160,600,o),
(105,600,c),
(30,600,o),
(30,525,o),
(30,525,c)
);
}
);
width = 660;
}
);
unicode = 109;
},
{
glyphname = n;
lastChange = "2022-10-28 17:44:24 +0000";
layers = (
{
layerId = m01;
shapes = (
{
attr = {
fillColor = (0,255);
};
closed = 1;
nodes = (
(30,0,l),
(105,0,l),
(105,150,l),
(105,150,o),
(329,-49,o),
(487,97,c),
(629,228,o),
(430,525,o),
(430,525,c),
(580,525,l),
(580,600,l),
(330,600,l),
(330,525,l),
(330,525,o),
(510,257,o),
(426,157,c),
(335,50,o),
(105,200,o),
(105,300,c),
(105,350,o),
(105,600,o),
(105,600,c),
(30,600,l)
);
}
);
width = 610;
}
);
unicode = 110;
},
{
glyphname = o;
lastChange = "2022-10-28 17:49:23 +0000";
layers = (
{
layerId = m01;
shapes = (
{
attr = {
fillColor = (0,255);
};
closed = 1;
nodes = (
(430,224,o),
(421,174,o),
(405,131,c),
(388,89,o),
(369,56,o),
(338,34,c),
(308,11,o),
(270,0,o),
(230,0,c),
(190,0,o),
(155,11,o),
(124,34,c),
(93,56,o),
(73,89,o),
(56,131,c),
(39,173,o),
(30,221,o),
(30,276,c),
(30,318,l),
(30,375,o),
(38,424,o),
(55,467,c),
(72,510,o),
(92,543,o),
(123,566,c),
(154,589,o),
(188,600,o),
(228,600,c),
(268,600,o),
(307,589,o),
(338,567,c),
(368,544,o),
(388,511,o),
(405,468,c),
(421,425,o),
(430,375,o),
(430,318,c),
(430,281,l)
);
},
{
attr = {
fillColor = (0,255);
};
closed = 1;
nodes = (
(356,389,o),
(347,428,o),
(323,465,c),
(298,502,o),
(271,517,o),
(228,517,c),
(186,517,o),
(162,502,o),
(137,465,c),
(113,428,o),
(109,386,o),
(109,320,c),
(109,280,l),
(109,213,o),
(113,172,o),
(138,135,c),
(162,99,o),
(186,80,o),
(228,80,c),
(270,80,o),
(301,99,o),
(325,135,c),
(350,172,o),
(355,212,o),
(356,280,c),
(356,320,l)
);
}
);
width = 460;
}
);
unicode = 111;
},
{
glyphname = p;
lastChange = "2022-10-28 17:58:17 +0000";
layers = (
{
layerId = m01;
shapes = (
{
attr = {
fillColor = (0,255);
};
closed = 1;
nodes = (
(530,525,o),
(530,600,o),
(330,600,c),
(30,600,o),
(30,315,o),
(30,315,c),
(30,50,o),
(255,50,o),
(255,50,c),
(255,50,o),
(245,-200,o),
(145,-200,c),
(120,-200,o),
(205,-200,o),
(230,-200,c),
(330,-200,o),
(330,50,o),
(330,50,c),
(330,50,o),
(580,50,o),
(580,225,c),
(580,400,o),
(415,400,o),
(415,400,c),
(255,400,o),
(255,275,o),
(255,275,c),
(255,125,l),
(255,125,o),
(105,125,o),
(105,315,c),
(105,315,o),
(105,525,o),
(330,525,c),
(530,525,o),
(530,450,o),
(530,450,c),
(530,525,l)
);
},
{
attr = {
fillColor = (0,255);
};
closed = 1;
nodes = (
(330,250,l),
(330,250,o),
(336,326,o),
(415,325,c),
(530,325,o),
(530,225,o),
(530,225,c),
(530,125,o),
(330,125,o),
(330,125,c)
);
}
);
width = 610;
}
);
unicode = 112;
},
{
glyphname = q;
lastChange = "2022-10-28 18:03:17 +0000";
layers = (
{
layerId = m01;
shapes = (
{
attr = {
fillColor = (0,255);
};
closed = 1;
nodes = (
(530,500,o),
(455,600,o),
(305,600,c),
(180,600,o),
(105,500,o),
(105,425,c),
(105,250,o),
(230,250,o),
(230,250,c),
(230,0,o),
(30,-25,o),
(30,-25,c),
(30,-100,l),
(30,-100,o),
(305,-100,o),
(305,300,c),
(305,300,o),
(180,300,o),
(180,425,c),
(180,475,o),
(230,525,o),
(305,525,c),
(380,525,o),
(455,475,o),
(455,425,c),
(454,355,o),
(455,0,o),
(455,0,c),
(530,0,l),
(530,0,o),
(530,325,o),
(530,425,c)
);
}
);
width = 560;
}
);
unicode = 113;
},
{
glyphname = r;
lastChange = "2022-10-28 18:09:25 +0000";
layers = (
{
layerId = m01;
shapes = (
{
attr = {
fillColor = (0,255);
};
closed = 1;
nodes = (
(30,0,l),
(105,0,l),
(105,425,l),
(105,425,o),
(155,525,o),
(255,525,c),
(255,525,o),
(355,525,o),
(355,425,c),
(355,300,o),
(255,300,o),
(255,300,c),
(255,-100,l),
(430,-100,l),
(430,-25,l),
(330,-25,l),
(330,250,l),
(330,250,o),
(430,275,o),
(430,425,c),
(430,600,o),
(255,600,o),
(255,600,c),
(155,600,o),
(105,525,o),
(105,525,c),
(105,600,l),
(30,600,l)
);
}
);
width = 460;
}
);
unicode = 114;
},
{
glyphname = s;
lastChange = "2022-10-28 18:15:04 +0000";
layers = (
{
layerId = m01;
shapes = (
{
attr = {
fillColor = (0,255);
};
closed = 1;
nodes = (
(480,450,l),
(480,450,o),
(480,600,o),
(255,600,c),
(30,600,o),
(30,450,o),
(30,450,c),
(30,0,l),
(105,0,l),
(105,175,l),
(105,175,o),
(105,275,o),
(255,275,c),
(402,278,o),
(405,175,o),
(405,175,c),
(405,75,o),
(330,75,o),
(330,75,c),
(330,0,l),
(330,0,o),
(480,0,o),
(480,175,c),
(480,175,o),
(479,350,o),
(255,350,c),
(130,350,o),
(105,275,o),
(105,275,c),
(105,450,l),
(105,450,o),
(105,525,o),
(255,525,c),
(405,526,o),
(405,450,o),
(405,450,c)
);
}
);
width = 510;
}
);
unicode = 115;
},
{
glyphname = t;
lastChange = "2022-10-23 13:18:37 +0000";
layers = (
{
layerId = m01;
shapes = (
{
attr = {
fillColor = (0,255);
};
closed = 1;
nodes = (
(455,0,l),
(455,0,o),
(455,375,o),
(455,550,c),
(455,600,o),
(430,625,o),
(380,625,c),
(295,625,o),
(240,625,o),
(155,625,c),
(105,625,o),
(105,525,o),
(105,525,c),
(30,525,l),
(30,525,o),
(55,700,o),
(130,700,c),
(205,700,o),
(330,700,o),
(430,700,c),
(480,700,o),
(530,650,o),
(530,600,c),
(530,429,o),
(530,0,o),
(530,0,c)
);
}
);
width = 560;
}
);
unicode = 116;
},
{
glyphname = u;
lastChange = "2022-10-30 14:40:37 +0000";
layers = (
{
layerId = m01;
shapes = (
{
attr = {
fillColor = (0,255);
};
closed = 1;
nodes = (
(30,200,l),
(30,200,o),
(30,0,o),
(180,0,c),
(330,0,o),
(330,200,o),
(330,200,c),
(330,400,l),
(330,400,o),
(330,525,o),
(430,525,c),
(530,525,o),
(530,400,o),
(530,400,c),
(530,400,o),
(530,300,o),
(530,200,c),
(530,75,o),
(430,75,o),
(430,75,c),
(380,75,l),
(380,0,l),
(430,0,l),
(430,0,o),
(605,0,o),
(605,200,c),
(605,295,o),
(605,400,o),
(605,400,c),
(605,400,o),
(605,600,o),
(430,600,c),
(255,600,o),
(255,400,o),
(255,400,c),
(255,200,l),
(255,200,o),
(255,75,o),
(180,75,c),
(105,75,o),
(105,200,o),
(105,200,c),
(105,600,l),
(30,600,l)
);
}
);
width = 635;
}
);
unicode = 117;
},
{
glyphname = v;
lastChange = "2022-11-04 12:13:27 +0000";
layers = (
{
layerId = m01;
shapes = (
{
attr = {
fillColor = (0,255);
};
closed = 1;
nodes = (
(30,0,l),
(105,0,l),
(105,0,o),
(580,225,o),
(580,450,c),
(580,450,o),
(580,600,o),
(430,600,c),
(280,600,o),
(280,450,o),
(280,450,c),
(355,450,l),
(355,450,o),
(355,525,o),
(430,525,c),
(505,525,o),
(505,450,o),
(505,450,c),
(505,284,o),
(105,75,o),
(105,75,c),
(105,600,l),
(30,600,l)
);
}
);
width = 610;
}
);
unicode = 118;
},
{
glyphname = w;
lastChange = "2022-11-04 12:20:19 +0000";
layers = (
{
layerId = m01;
shapes = (
{
attr = {
fillColor = (0,255);
};
closed = 1;
nodes = (
(30,0,l),
(105,0,l),
(105,0,o),
(480,225,o),
(480,450,c),
(480,450,o),
(480,525,o),
(580,525,c),
(580,525,o),
(655,525,o),
(655,450,c),
(655,300,o),
(255,0,o),
(255,0,c),
(330,0,l),
(330,0,o),
(730,265,o),
(730,450,c),
(730,600,o),
(580,600,o),
(580,600,c),
(505,600,o),
(459,557,o),
(459,557,c),
(459,557,o),
(435,600,o),
(345,600,c),
(180,600,o),
(180,450,o),
(180,450,c),
(255,450,l),
(255,450,o),
(255,525,o),
(345,525,c),
(415,525,o),
(415,450,o),
(415,450,c),
(415,300,o),
(105,75,o),
(105,75,c),
(105,600,l),
(30,600,l)
);
}
);
width = 760;
}
);
unicode = 119;
},
{
glyphname = x;
lastChange = "2022-11-04 12:23:30 +0000";
layers = (
{
layerId = m01;
shapes = (
{
attr = {
fillColor = (0,255);
};
closed = 1;
nodes = (
(430,600,l),
(530,600,l),
(330,300,l),
(530,0,l),
(430,0,l),
(280,235,l),
(130,0,l),
(30,0,l),
(230,300,l),
(30,600,l),
(130,600,l),
(280,370,l)
);
}
);
width = 560;
}
);
unicode = 120;
},
{
glyphname = y;
lastChange = "2022-11-04 12:32:26 +0000";
layers = (
{
layerId = m01;
shapes = (
{
attr = {
fillColor = (0,255);
};
closed = 1;
nodes = (
(630,450,o),
(630,600,o),
(505,600,c),
(380,600,o),
(380,450,o),
(380,450,c),
(455,450,l),
(455,450,o),
(455,525,o),
(505,525,c),
(555,525,o),
(555,450,o),
(555,450,c),
(555,300,o),
(165,50,o),
(165,50,c),
(205,600,l),
(130,601,l),
(130,601,o),
(123,299,o),
(100,102,c),
(89,2,o),
(30,-200,o),
(30,-200,c),
(115,-200,l),
(115,-200,o),
(152,-85,o),
(192,-40,c),
(254,31,o),
(630,225,o),
(630,450,c)
);
}
);
width = 660;
}
);
unicode = 121;
},
{
glyphname = z;
lastChange = "2022-11-04 12:31:47 +0000";
layers = (
{
layerId = m01;
shapes = (
{
attr = {
fillColor = (0,255);
};
closed = 1;
nodes = (
(255,525,l),
(630,525,l),
(501,386,l),
(501,386,o),
(497,443,o),
(430,443,c),
(387,442,o),
(280,385,o),
(186,299,c),
(113,233,o),
(30,150,o),
(30,75,c),
(30,30,o),
(60,0,o),
(105,0,c),
(155,0,o),
(212,50,o),
(263,94,c),
(341,160,o),
(430,240,o),
(430,240,c),
(430,240,o),
(430,150,o),
(430,75,c),
(430,0,o),
(505,0,o),
(505,0,c),
(630,0,l),
(630,75,l),
(530,75,l),
(530,75,o),
(505,75,o),
(505,100,c),
(505,200,o),
(505,300,o),
(505,300,c),
(730,525,l),
(730,600,l),
(255,600,l)
);
},
{
attr = {
fillColor = (0,255);
};
closed = 1;
nodes = (
(422,332,o),
(325,246,o),
(260,188,c),
(221,154,o),
(180,118,o),
(149,118,c),
(127,118,o),
(168,180,o),
(229,243,c),
(279,295,o),
(354,364,o),
(395,364,c),
(414,364,o),
(422,332,o),
(422,332,c)
);
}
);
width = 760;
}
);
unicode = 122;
},
{
glyphname = zero;
lastChange = "2022-11-05 13:00:12 +0000";
layers = (
{
layerId = m01;
shapes = (
{
attr = {
fillColor = (0,255);
};
closed = 1;
nodes = (
(630,299,o),
(617,232,o),
(593,175,c),
(568,118,o),
(533,75,o),
(488,45,c),
(443,15,o),
(390,0,o),
(329,0,c),
(270,0,o),
(219,15,o),
(174,45,c),
(128,75,o),
(93,118,o),
(67,174,c),
(42,230,o),
(30,295,o),
(30,368,c),
(30,424,l),
(30,499,o),
(41,566,o),
(66,623,c),
(91,680,o),
(127,724,o),
(171,755,c),
(217,785,o),
(269,801,o),
(328,801,c),
(388,801,o),
(441,786,o),
(487,756,c),
(533,725,o),
(568,682,o),
(593,624,c),
(617,567,o),
(630,500,o),
(630,424,c),
(630,375,l)
);
},
{
attr = {
fillColor = (0,255);
};
closed = 1;
nodes = (
(222,110,o),
(270,87,o),
(329,87,c),
(393,87,o),
(443,111,o),
(478,160,c),
(513,208,o),
(531,277,o),
(532,368,c),
(532,425,l),
(532,518,o),
(514,589,o),
(478,638,c),
(442,688,o),
(393,712,o),
(328,712,c),
(266,712,o),
(217,688,o),
(181,638,c),
(146,589,o),
(128,520,o),
(127,432,c),
(127,375,l),
(127,312,o),
(136,259,o),
(153,215,c),
(330,400,l),
(430,400,l),
(187,155,l)
);
}
);
width = 660;
}
);
unicode = 48;
},
{
glyphname = one;
lastChange = "2022-11-05 13:08:55 +0000";
layers = (
{
layerId = m01;
shapes = (
{
attr = {
fillColor = (0,255);
};
closed = 1;
nodes = (
(130,0,l),
(130,0,o),
(230,0,o),
(230,100,c),
(230,200,o),
(231,495,o),
(230,600,c),
(230,650,o),
(230,700,o),
(280,700,c),
(380,700,o),
(380,700,o),
(480,700,c),
(530,700,o),
(530,600,o),
(530,600,c),
(630,600,l),
(630,600,o),
(605,800,o),
(505,800,c),
(405,800,o),
(329,801,o),
(230,800,c),
(180,800,o),
(130,750,o),
(130,700,c),
(130,575,o),
(130,300,o),
(130,150,c),
(130,100,o),
(80,100,o),
(80,100,c),
(30,100,l),
(30,0,l)
);
}
);
width = 660;
}
);
unicode = 49;
},
{
glyphname = two;
lastChange = "2022-11-05 14:54:44 +0000";
layers = (
{
layerId = m01;
shapes = (
{
attr = {
fillColor = (0,255);
};
closed = 1;
nodes = (
(251,400,o),
(230,400,o),
(255,400,c),
(430,400,o),
(430,525,o),
(430,525,c),
(430,550,l),
(330,550,l),
(330,550,o),
(330,500,o),
(280,500,c),
(255,500,o),
(244,500,o),
(230,500,c),
(230,550,o),
(230,576,o),
(230,600,c),
(230,651,o),
(230,700,o),
(280,700,c),
(380,700,o),
(380,700,o),
(480,700,c),
(530,700,o),
(530,600,o),
(530,600,c),
(630,600,l),
(630,600,o),
(605,800,o),
(505,800,c),
(405,800,o),
(330,800,o),
(230,800,c),
(180,800,o),
(130,750,o),
(130,700,c),
(130,575,o),
(131,303,o),
(130,150,c),
(130,100,o),
(80,100,o),
(80,100,c),
(30,100,l),
(30,0,l),
(130,0,l),
(130,0,o),
(230,0,o),
(230,100,c),
(230,157,o),
(231,285,o),
(230,400,c)
);
}
);
width = 660;
}
);
unicode = 50;
},
{
glyphname = three;
lastChange = "2022-11-05 14:53:45 +0000";
layers = (
{
layerId = m01;
shapes = (
{
attr = {
fillColor = (0,255);
};
closed = 1;
nodes = (
(252,200,o),
(230,200,o),
(255,200,c),
(430,200,o),
(430,325,o),
(430,325,c),
(430,350,l),
(330,350,l),
(330,350,o),
(330,300,o),
(280,300,c),
(256,300,o),
(245,301,o),
(231,301,c),
(230,334,o),
(230,367,o),
(230,400,c),
(251,400,o),
(228,400,o),
(255,400,c),
(430,400,o),
(430,525,o),
(430,525,c),
(430,550,l),
(330,550,l),
(330,550,o),
(330,500,o),
(280,500,c),
(256,500,o),
(244,500,o),
(230,500,c),
(230,540,o),
(230,576,o),
(230,600,c),
(230,650,o),
(230,700,o),
(280,700,c),
(380,700,o),
(380,700,o),
(480,700,c),
(530,700,o),
(530,600,o),
(530,600,c),
(630,600,l),
(630,600,o),
(605,800,o),
(505,800,c),
(405,800,o),
(329,801,o),
(230,800,c),
(180,800,o),
(130,750,o),
(130,700,c),
(131,573,o),
(131,303,o),
(130,150,c),
(130,100,o),
(80,100,o),
(80,100,c),
(30,100,l),
(30,0,l),
(130,0,l),
(130,0,o),
(230,0,o),
(230,100,c),
(230,123,o),
(230,159,o),
(230,200,c)
);
}
);
width = 660;
}
);
unicode = 51;
},
{
glyphname = four;
lastChange = "2022-11-06 16:30:52 +0000";
layers = (
{
layerId = m01;
shapes = (
{
attr = {
fillColor = (0,255);
};
closed = 1;
nodes = (
(130,0,l),
(630,0,l),
(630,0,o),
(730,0,o),
(730,100,c),
(730,150,o),
(727,196,o),
(630,398,c),
(538,589,o),
(433,799,o),
(280,800,c),
(30,800,o),
(30,600,o),
(30,600,c),
(30,500,l),
(130,500,l),
(130,600,l),
(130,600,o),
(130,700,o),
(280,700,c),
(430,700,o),
(529,398,o),
(622,165,c),
(631,141,o),
(632,100,o),
(580,100,c),
(430,100,o),
(130,100,o),
(130,100,c)
);
}
);
width = 760;
}
);
unicode = 52;
},
{
glyphname = five;
lastChange = "2022-11-10 02:33:26 +0000";
layers = (
{
layerId = m01;
shapes = (
{
attr = {
fillColor = (0,255);
};
closed = 1;
nodes = (
(230,600,l),
(230,600,o),
(230,700,o),
(330,700,c),
(430,700,o),
(430,600,o),
(430,600,c),
(430,525,l),
(430,525,o),
(264,371,o),
(133,246,c),
(72,188,o),
(29,132,o),
(30,100,c),
(30,0,o),
(165,0,o),
(165,0,c),
(230,0,l),
(230,100,l),
(165,100,l),
(165,100,o),
(113,94,o),
(158,141,c),
(213,197,o),
(430,400,o),
(430,400,c),
(430,400,o),
(430,200,o),
(430,100,c),
(430,0,o),
(580,0,o),
(580,0,c),
(630,0,l),
(630,100,l),
(580,100,l),
(580,100,o),
(530,100,o),
(530,150,c),
(530,300,o),
(530,600,o),
(530,600,c),
(530,600,o),
(530,800,o),
(330,800,c),
(130,800,o),
(130,600,o),
(130,600,c)
);
}
);
width = 660;
}
);
unicode = 53;
},
{
glyphname = six;
lastChange = "2022-11-06 16:31:16 +0000";
layers = (
{
layerId = m01;
shapes = (
{
attr = {
fillColor = (0,255);
};
closed = 1;
nodes = (
(630,100,o),
(330,100,o),
(180,100,c),
(128,100,o),
(129,141,o),
(138,165,c),
(231,398,o),
(330,700,o),
(480,700,c),
(630,700,o),
(630,600,o),
(630,600,c),
(630,500,l),
(730,500,l),
(730,600,l),
(730,600,o),
(730,800,o),
(480,800,c),
(327,799,o),
(222,589,o),
(130,398,c),
(33,196,o),
(30,150,o),
(30,100,c),
(30,0,o),
(130,0,o),
(130,0,c),
(630,0,l),
(630,100,l)
);
}
);
width = 760;
}
);
unicode = 54;
},
{
glyphname = seven;
lastChange = "2022-11-10 02:38:49 +0000";
layers = (
{
layerId = m01;
shapes = (
{
attr = {
fillColor = (0,255);
};
closed = 1;
nodes = (
(30,700,l),
(80,700,l),
(80,700,o),
(130,700,o),
(130,650,c),
(130,500,o),
(130,0,o),
(130,0,c),
(230,0,l),
(230,100,l),
(230,100,o),
(305,25,o),
(355,25,c),
(530,25,o),
(530,200,o),
(530,200,c),
(530,200,o),
(530,375,o),
(355,375,c),
(305,375,o),
(230,300,o),
(230,300,c),
(230,300,o),
(232,601,o),
(230,700,c),
(230,800,o),
(80,800,o),
(80,800,c),
(30,800,l)
);
},
{
attr = {
fillColor = (0,255);
};
closed = 1;
nodes = (
(430,200,o),
(430,125,o),
(355,125,c),
(280,125,o),
(230,200,o),
(230,200,c),
(230,200,o),
(282,268,o),
(357,268,c),
(427,267,o),
(430,200,o),
(430,200,c)
);
}
);
width = 560;
}
);
unicode = 55;
},
{
glyphname = eight;
lastChange = "2022-11-10 14:04:51 +0000";
layers = (
{
layerId = m01;
shapes = (
{
attr = {
fillColor = (0,255);
};
closed = 1;
nodes = (
(105,600,o),
(80,600,o),
(80,600,c),
(30,600,l),
(30,500,l),
(80,500,l),
(80,500,o),
(130,498,o),
(130,450,c),
(130,450,o),
(130,0,o),
(130,0,c),
(230,0,l),
(230,100,l),
(230,100,o),
(305,25,o),
(355,25,c),
(530,25,o),
(530,200,o),
(530,200,c),
(530,200,o),
(530,375,o),
(355,375,c),
(305,375,o),
(230,300,o),
(230,300,c),
(230,300,o),
(230,650,o),
(230,700,c),
(230,800,o),
(80,800,o),
(80,800,c),
(30,800,l),
(30,700,l),
(80,700,l),
(80,700,o),
(129,703,o),
(130,650,c),
(130,636,o),
(130,614,o),
(130,593,c)
);
},
{
attr = {
fillColor = (0,255);
};
closed = 1;
nodes = (
(430,200,o),
(430,125,o),
(355,125,c),
(280,125,o),
(230,200,o),
(230,200,c),
(230,200,o),
(280,275,o),
(355,275,c),
(430,275,o),
(430,200,o),
(430,200,c)
);
}
);
width = 560;
}
);
unicode = 56;
},
{
glyphname = nine;
lastChange = "2022-11-10 14:09:02 +0000";
layers = (
{
layerId = m01;
shapes = (
{
attr = {
fillColor = (0,255);
};
closed = 1;
nodes = (
(105,600,o),
(80,600,o),
(80,600,c),
(30,600,l),
(30,500,l),
(80,500,l),
(80,500,o),
(130,498,o),
(130,450,c),
(130,450,o),
(130,412,o),
(130,393,c),
(104,400,o),
(80,400,o),
(80,400,c),
(30,400,l),
(30,300,l),
(80,300,l),
(80,300,o),
(130,297,o),
(130,250,c),
(130,250,o),
(130,0,o),
(130,0,c),
(230,0,l),
(230,100,l),
(230,100,o),
(305,25,o),
(355,25,c),
(530,25,o),
(530,200,o),
(530,200,c),
(530,200,o),
(530,375,o),
(355,375,c),
(305,375,o),
(230,306,o),
(230,306,c),
(230,306,o),
(230,650,o),
(230,700,c),
(230,800,o),
(80,800,o),
(80,800,c),
(30,800,l),
(30,700,l),
(80,700,l),
(80,700,o),
(129,703,o),
(130,650,c),
(130,636,o),
(130,614,o),
(130,593,c)
);
},
{
attr = {
fillColor = (0,255);
};
closed = 1;
nodes = (
(430,200,o),
(430,125,o),
(355,125,c),
(280,125,o),
(232,200,o),
(232,200,c),
(232,200,o),
(280,275,o),
(355,275,c),
(430,275,o),
(430,200,o),
(430,200,c)
);
}
);
width = 560;
}
);
unicode = 57;
},
{
glyphname = period;
lastChange = "2022-11-10 14:10:28 +0000";
layers = (
{
layerId = m01;
shapes = (
{
attr = {
fillColor = (0,255);
};
closed = 1;
nodes = (
(109,99,o),
(132,77,o),
(132,50,c),
(132,22,o),
(109,0,o),
(81,0,c),
(53,0,o),
(30,22,o),
(30,50,c),
(30,77,o),
(53,99,o),
(81,99,c)
);
},
{
attr = {
fillColor = (0,255);
};
closed = 1;
nodes = (
(71,68,o),
(63,60,o),
(63,50,c),
(63,40,o),
(71,32,o),
(80,32,c),
(90,32,o),
(98,40,o),
(98,50,c),
(98,60,o),
(90,68,o),
(80,68,c)
);
}
);
width = 162;
}
);
unicode = 46;
},
{
glyphname = comma;
lastChange = "2022-11-10 14:11:09 +0000";
layers = (
{
layerId = m01;
shapes = (
{
attr = {
fillColor = (0,255);
};
closed = 1;
nodes = (
(81,98,l),
(109,98,o),
(131,76,o),
(131,49,c),
(131,22,o),
(109,0,o),
(81,0,c),
(53,0,o),
(30,22,o),
(30,49,c),
(30,76,o),
(53,98,o),
(81,98,c)
);
}
);
width = 161;
}
);
unicode = 44;
},
{
glyphname = exclam;
lastChange = "2022-11-10 14:12:24 +0000";
layers = (
{
layerId = m01;
shapes = (
{
attr = {
fillColor = (0,255);
};
closed = 1;
nodes = (
(81,98,l),
(109,98,o),
(131,76,o),
(131,49,c),
(131,22,o),
(109,0,o),
(81,0,c),
(53,0,o),
(30,22,o),
(30,49,c),
(30,76,o),
(53,98,o),
(81,98,c)
);
},
{
attr = {
fillColor = (0,255);
};
closed = 1;
nodes = (
(132,800,l),
(132,200,l),
(32,200,l),
(32,800,l)
);
}
);
width = 162;
}
);
unicode = 33;
},
{
glyphname = question;
lastChange = "2022-11-10 14:27:58 +0000";
layers = (
{
layerId = m01;
shapes = (
{
attr = {
fillColor = (0,255);
};
closed = 1;
nodes = (
(202,99,o),
(179,77,o),
(179,50,c),
(179,22,o),
(202,0,o),
(230,0,c),
(257,0,o),
(280,22,o),
(280,50,c),
(280,77,o),
(257,99,o),
(230,99,c),
(230,99,l)
);
},
{
attr = {
fillColor = (0,255);
};
closed = 1;
nodes = (
(30,600,o),
(30,800,o),
(230,800,c),
(430,800,o),
(430,600,o),
(430,600,c),
(430,400,o),
(280,400,o),
(280,200,c),
(280,200,o),
(180,200,o),
(180,200,c),
(180,400,o),
(330,400,o),
(330,600,c),
(330,600,o),
(330,700,o),
(230,700,c),
(130,700,o),
(130,600,o),
(130,600,c),
(30,600,l)
);
}
);
width = 460;
}
);
unicode = 63;
},
{
glyphname = hyphen;
lastChange = "2022-11-10 14:16:52 +0000";
layers = (
{
layerId = m01;
shapes = (
{
attr = {
fillColor = (0,255);
};
closed = 1;
nodes = (
(530,400,l),
(530,300,l),
(30,300,l),
(30,400,l)
);
}
